<svg width="175" height="56" viewBox="0 0 175 56" fill="none" xmlns="http://www.w3.org/2000/svg">
<path fill-rule="evenodd" clip-rule="evenodd" d="M26.992 50.3162C27.2685 48.9864 28.0277 46.5429 27.1502 43.9171C26.6806 42.512 25.3158 39.3095 24.8692 39.1738C24.4088 39.0338 21.4903 40.9348 20.31 41.8382C18.8846 42.9299 17.992 44.4453 16.8413 47.2313C16.1266 48.9625 15.9886 49.9468 16.1384 51.2068C16.334 52.8549 17.4115 55.0782 19.7583 55.7913C22.1048 56.5043 24.2491 55.2602 25.3384 54.0028C26.2095 52.9971 26.6359 52.0275 26.992 50.3162Z" fill="#763644"/>
<path fill-rule="evenodd" clip-rule="evenodd" d="M45.4045 49.5001L30.7585 1.91675H19.7703L34.4163 49.5001H45.4045Z" fill="#763644"/>
<path fill-rule="evenodd" clip-rule="evenodd" d="M15.8915 15.015C13.1296 14.2528 10.2721 15.8547 9.5093 18.593L0 49.5859H10.8438C14.6927 37.2322 19.5213 21.3031 19.5213 21.3031C20.1879 18.6074 18.6036 15.7633 15.8915 15.015Z" fill="#763644"/>
<mask id="mask0" mask-type="alpha" maskUnits="userSpaceOnUse" x="46" y="0" width="129" height="51">
<path d="M46.7102 0H175V50.5H46.7102V0Z" fill="white"/>
</mask>
<g mask="url(#mask0)">
<path fill-rule="evenodd" clip-rule="evenodd" d="M175 19.8211C175 17.0618 172.753 14.8251 169.981 14.8251C169.865 14.8251 169.755 14.8515 169.641 14.8592C169.585 14.8386 169.547 14.8251 169.541 14.8251C166.096 14.8251 162.22 16.8019 159.74 21.397H159.464L158.69 15.7977H150.064L150.025 49.5858H160.635L160.667 30.8625C162.458 26.3357 165.645 24.7958 168.194 24.7958C168.967 24.7958 169.385 24.8748 170.295 24.8692C171.064 24.8645 171.776 24.5895 172.411 24.1665C173.948 23.3125 175 21.6977 175 19.8211ZM142.991 35.8464C143.194 34.8881 143.398 33.1077 143.398 31.1904C143.398 21.9466 138.642 14.8254 128.858 14.8254C120.772 14.8254 112.89 21.604 112.89 32.6282C112.89 43.9949 120.364 50.5 130.013 50.5C134.022 50.5 138.642 49.1988 142.175 46.6653L138.778 40.2976C136.4 41.6671 133.954 42.4201 131.508 42.4201C127.227 42.4201 124.034 40.4345 123.082 35.8464H142.991ZM134.429 28.7252H122.946C123.626 24.754 126.14 22.8366 129.13 22.8366C132.934 22.8366 134.429 25.3701 134.429 28.7252ZM112.817 49.5858L100.071 29.696L111.875 15.7977H100.034L90.0802 28.3929H89.8733L89.9965 0H84.7087C84.6685 0 84.6309 0.0106478 84.591 0.0117493C84.5508 0.0106478 84.5136 0 84.4734 0C81.7015 0 79.4548 2.23677 79.4548 4.99566C79.4548 5.03715 79.4651 5.07423 79.4662 5.11536C79.4655 5.15427 79.4548 5.19062 79.4548 5.22991L79.3316 49.5858H89.8733V41.1497L93.8008 36.6233L101.242 49.5858H112.817ZM57.5629 32.6282C57.5629 27.0135 60.5162 23.3161 65.2556 23.3161C66.7668 23.3161 68.0717 23.7953 69.6515 24.9592L74.5971 18.4545C72.0553 16.2632 68.8271 14.8254 64.6374 14.8254C55.1587 14.8254 46.7102 21.3301 46.7102 32.6282C46.7102 43.9263 54.0599 50.5 63.6758 50.5C67.316 50.5 71.6433 49.4727 74.9405 46.4601L70.8193 39.818C69.1019 41.1189 67.1788 41.9406 64.9122 41.9406C60.7224 41.9406 57.5629 38.3116 57.5629 32.6282Z" fill="#763644"/>
</g>
</svg>
