<svg width="170" height="40" viewBox="0 0 170 40" fill="none" xmlns="http://www.w3.org/2000/svg">
<path d="M90.6059 33.7072C90.6059 34.7674 90.3622 35.6202 89.8749 36.2657C89.3875 36.907 88.7335 37.2276 87.9127 37.2276C87.0363 37.2276 86.3588 36.9177 85.88 36.2978L85.8223 37.0993H84.7322V27.25H85.9185V30.9243C86.3972 30.3301 87.0577 30.033 87.8999 30.033C88.742 30.033 89.4025 30.3514 89.8813 30.9884C90.3643 31.6253 90.6059 32.4974 90.6059 33.6046V33.7072ZM89.4196 33.5726C89.4196 32.7646 89.2636 32.1405 88.9515 31.7002C88.6394 31.2598 88.1906 31.0397 87.6049 31.0397C86.8226 31.0397 86.2604 31.4031 85.9185 32.1298V35.1308C86.2818 35.8575 86.8482 36.2208 87.6177 36.2208C88.1863 36.2208 88.6287 36.0007 88.9451 35.5604C89.2614 35.1201 89.4196 34.4575 89.4196 33.5726Z" fill="#818E9B"/>
<path d="M94.3921 35.3616L96.008 30.1612H97.2776L94.4883 38.1702C94.0565 39.3244 93.3704 39.9015 92.4299 39.9015L92.2055 39.8823L91.763 39.7989V38.8371L92.0836 38.8627C92.4855 38.8627 92.7976 38.7815 93.0198 38.6191C93.2464 38.4566 93.4324 38.1595 93.5777 37.7277L93.8406 37.0224L91.3655 30.1612H92.6608L94.3921 35.3616Z" fill="#818E9B"/>
<path d="M103.94 27.763L106.633 34.9191L109.319 27.763H111.416V37.0993H109.8V34.0214L109.961 29.9047L107.203 37.0993H106.043L103.292 29.9111L103.452 34.0214V37.0993H101.836V27.763H103.94Z" fill="#818E9B"/>
<path d="M114.94 37.0993H113.381V30.1612H114.94V37.0993ZM113.285 28.3593C113.285 28.1199 113.36 27.9212 113.51 27.763C113.664 27.6048 113.882 27.5257 114.164 27.5257C114.446 27.5257 114.664 27.6048 114.818 27.763C114.972 27.9212 115.049 28.1199 115.049 28.3593C115.049 28.5945 114.972 28.7911 114.818 28.9493C114.664 29.1032 114.446 29.1801 114.164 29.1801C113.882 29.1801 113.664 29.1032 113.51 28.9493C113.36 28.7911 113.285 28.5945 113.285 28.3593Z" fill="#818E9B"/>
<path d="M116.443 33.5661C116.443 32.8864 116.578 32.2751 116.847 31.7322C117.116 31.185 117.495 30.7661 117.982 30.4754C118.469 30.1804 119.029 30.033 119.662 30.033C120.598 30.033 121.357 30.3343 121.938 30.9371C122.524 31.5398 122.84 32.3393 122.887 33.3353L122.894 33.7008C122.894 34.3848 122.761 34.9961 122.496 35.5347C122.236 36.0734 121.859 36.4902 121.368 36.7851C120.88 37.0801 120.316 37.2276 119.675 37.2276C118.696 37.2276 117.911 36.9027 117.322 36.2529C116.736 35.5989 116.443 34.7289 116.443 33.6431V33.5661ZM118.001 33.7008C118.001 34.4147 118.149 34.9747 118.444 35.3808C118.739 35.7827 119.149 35.9836 119.675 35.9836C120.201 35.9836 120.609 35.7784 120.9 35.368C121.195 34.9576 121.342 34.357 121.342 33.5661C121.342 32.8651 121.19 32.3093 120.887 31.8989C120.588 31.4885 120.179 31.2834 119.662 31.2834C119.153 31.2834 118.749 31.4864 118.45 31.8925C118.151 32.2944 118.001 32.8971 118.001 33.7008Z" fill="#818E9B"/>
<path d="M124.455 37.0993V27.763H127.212C128.037 27.763 128.768 27.9468 129.405 28.3144C130.047 28.6821 130.542 29.2036 130.893 29.8791C131.243 30.5545 131.419 31.3282 131.419 32.2003V32.6684C131.419 33.5533 131.241 34.3313 130.887 35.0025C130.536 35.6737 130.034 36.1909 129.38 36.5543C128.73 36.9177 127.984 37.0993 127.142 37.0993H124.455ZM126.077 29.0711V35.804H127.135C127.986 35.804 128.638 35.539 129.091 35.0089C129.549 34.4746 129.781 33.7094 129.79 32.7133V32.1939C129.79 31.1808 129.57 30.407 129.13 29.8726C128.689 29.3383 128.05 29.0711 127.212 29.0711H126.077Z" fill="#818E9B"/>
<path d="M132.685 33.5661C132.685 32.8864 132.82 32.2751 133.089 31.7322C133.358 31.185 133.737 30.7661 134.224 30.4754C134.711 30.1804 135.271 30.033 135.904 30.033C136.84 30.033 137.599 30.3343 138.18 30.9371C138.766 31.5398 139.082 32.3393 139.129 33.3353L139.136 33.7008C139.136 34.3848 139.003 34.9961 138.738 35.5347C138.477 36.0734 138.101 36.4902 137.61 36.7851C137.122 37.0801 136.558 37.2276 135.917 37.2276C134.938 37.2276 134.153 36.9027 133.563 36.2529C132.978 35.5989 132.685 34.7289 132.685 33.6431V33.5661ZM134.243 33.7008C134.243 34.4147 134.391 34.9747 134.686 35.3808C134.981 35.7827 135.391 35.9836 135.917 35.9836C136.443 35.9836 136.851 35.7784 137.142 35.368C137.436 34.9576 137.584 34.357 137.584 33.5661C137.584 32.8651 137.432 32.3093 137.129 31.8989C136.829 31.4885 136.421 31.2834 135.904 31.2834C135.395 31.2834 134.991 31.4864 134.692 31.8925C134.393 32.2944 134.243 32.8971 134.243 33.7008Z" fill="#818E9B"/>
<path d="M142.499 28.4748V30.1612H143.723V31.3154H142.499V35.1885C142.499 35.4535 142.55 35.6459 142.653 35.7656C142.76 35.881 142.948 35.9387 143.217 35.9387C143.396 35.9387 143.578 35.9173 143.762 35.8746V37.0801C143.407 37.1784 143.065 37.2276 142.736 37.2276C141.539 37.2276 140.941 36.5671 140.941 35.2462V31.3154H139.799V30.1612H140.941V28.4748H142.499Z" fill="#818E9B"/>
<path d="M146.965 28.4748V30.1612H148.189V31.3154H146.965V35.1885C146.965 35.4535 147.016 35.6459 147.119 35.7656C147.225 35.881 147.414 35.9387 147.683 35.9387C147.862 35.9387 148.044 35.9173 148.228 35.8746V37.0801C147.873 37.1784 147.531 37.2276 147.202 37.2276C146.005 37.2276 145.406 36.5671 145.406 35.2462V31.3154H144.265V30.1612H145.406V28.4748H146.965Z" fill="#818E9B"/>
<path d="M148.994 33.5661C148.994 32.8864 149.129 32.2751 149.398 31.7322C149.667 31.185 150.046 30.7661 150.533 30.4754C151.02 30.1804 151.58 30.033 152.213 30.033C153.149 30.033 153.908 30.3343 154.489 30.9371C155.075 31.5398 155.391 32.3393 155.438 33.3353L155.445 33.7008C155.445 34.3848 155.312 34.9961 155.047 35.5347C154.786 36.0734 154.41 36.4902 153.919 36.7851C153.431 37.0801 152.867 37.2276 152.226 37.2276C151.247 37.2276 150.462 36.9027 149.872 36.2529C149.287 35.5989 148.994 34.7289 148.994 33.6431V33.5661ZM150.552 33.7008C150.552 34.4147 150.7 34.9747 150.995 35.3808C151.29 35.7827 151.7 35.9836 152.226 35.9836C152.752 35.9836 153.16 35.7784 153.45 35.368C153.745 34.9576 153.893 34.357 153.893 33.5661C153.893 32.8651 153.741 32.3093 153.438 31.8989C153.138 31.4885 152.73 31.2834 152.213 31.2834C151.704 31.2834 151.3 31.4864 151.001 31.8925C150.702 32.2944 150.552 32.8971 150.552 33.7008Z" fill="#818E9B"/>
<path d="M160.488 31.5847C160.283 31.5505 160.071 31.5334 159.853 31.5334C159.139 31.5334 158.658 31.807 158.41 32.3542V37.0993H156.852V30.1612H158.34L158.378 30.9371C158.754 30.3343 159.276 30.033 159.943 30.033C160.165 30.033 160.349 30.0629 160.494 30.1227L160.488 31.5847Z" fill="#818E9B"/>
<path d="M164.492 37.2276C163.504 37.2276 162.703 36.9177 162.087 36.2978C161.476 35.6737 161.17 34.8443 161.17 33.8098V33.6174C161.17 32.9249 161.303 32.3072 161.568 31.7643C161.837 31.2171 162.213 30.7917 162.697 30.4882C163.18 30.1847 163.718 30.033 164.312 30.033C165.257 30.033 165.986 30.3343 166.499 30.9371C167.016 31.5398 167.275 32.3927 167.275 33.4956V34.124H162.741C162.788 34.6969 162.979 35.15 163.312 35.4834C163.65 35.8169 164.073 35.9836 164.582 35.9836C165.296 35.9836 165.877 35.695 166.326 35.1179L167.166 35.9195C166.888 36.3341 166.516 36.6569 166.05 36.8877C165.588 37.1143 165.069 37.2276 164.492 37.2276ZM164.306 31.2834C163.879 31.2834 163.532 31.433 163.267 31.7322C163.006 32.0315 162.84 32.4483 162.767 32.9826H165.736V32.8672C165.702 32.3457 165.563 31.9524 165.319 31.6873C165.076 31.418 164.738 31.2834 164.306 31.2834Z" fill="#818E9B"/>
<path d="M158.568 0C164.777 0 168.946 4.86818 168.946 10.5231C168.946 16.1782 164.719 21.1042 158.51 21.1042C152.301 21.1042 148.133 16.2369 148.133 10.5813C148.133 4.92648 152.359 0 158.568 0ZM137.201 0.350402C141.807 0.350402 144.839 2.79811 144.839 6.85039C144.839 11.2808 141.166 13.5542 136.823 13.5542H131.868V20.7544H129.565V0.350402H137.201ZM80.42 0.350083V2.47771H73.5692V20.7543H71.2372V2.47771H64.3875V0.350083H80.42ZM99.4831 0.350402V2.44835H87.0364V9.41543H98.1711V11.5148H87.0364V18.6562H99.6288V20.7543H84.7332V0.350402H99.4831ZM106.595 0.350402L114.029 11.4853L121.462 0.350402H123.794V20.7543H121.49V4.22727L114.057 15.1577H113.941L106.508 4.2561V20.7543H104.263V0.350402H106.595ZM166.227 9.58903H158.212V11.578H166.227V9.58903ZM137.027 2.47813H131.868V11.4559H136.91C140.292 11.4559 142.507 9.6486 142.507 6.93836C142.507 3.99367 140.321 2.47813 137.027 2.47813Z" fill="#818E9B"/>
<path d="M52.0022 0C58.21 0 62.3791 4.86818 62.3791 10.5231C62.3791 16.1782 58.1531 21.1042 51.9442 21.1042C45.735 21.1042 41.5668 16.2369 41.5668 10.5813C41.5668 4.92648 45.7934 0 52.0022 0ZM22.3282 0.349657V12.0677C22.3282 16.4696 24.6609 18.9478 28.5659 18.9478C32.3271 18.9478 34.7172 16.6736 34.7172 12.2142V0.349657H37.0198V12.0384C37.0198 17.9855 33.6095 21.0754 28.5083 21.0754C23.4652 21.0754 20.0257 17.9855 20.0257 12.2142V0.349657H22.3282ZM16.0326 0.350083V2.4777H9.18183V20.7543H6.84986V2.4777H0V0.350083H16.0326ZM53.078 2.74184H51.0891V10.7564H53.078V2.74184Z" fill="#00C3A5"/>
</svg>
